<?xml version="1.0" encoding="UTF-8" ?>
<svg version="1.1" width="30" height="30" xmlns="http://www.w3.org/2000/svg" shape-rendering="crispEdges">
<rect x="11" y="2" width="1" height="1" fill=currentColor />
<rect x="12" y="2" width="1" height="1" fill=currentColor />
<rect x="13" y="2" width="1" height="1" fill=currentColor />
<rect x="10" y="3" width="1" height="1" fill=currentColor />
<rect x="11" y="3" width="1" height="1" fill=currentColor />
<rect x="12" y="3" width="1" height="1" fill=currentColor />
<rect x="13" y="3" width="1" height="1" fill=currentColor />
<rect x="14" y="3" width="1" height="1" fill=currentColor />
<rect x="15" y="3" width="1" height="1" fill=currentColor />
<rect x="9" y="4" width="1" height="1" fill=currentColor />
<rect x="10" y="4" width="1" height="1" fill=currentColor />
<rect x="11" y="4" width="1" height="1" fill=currentColor />
<rect x="12" y="4" width="1" height="1" fill=currentColor />
<rect x="13" y="4" width="1" height="1" fill=currentColor />
<rect x="14" y="4" width="1" height="1" fill=currentColor />
<rect x="15" y="4" width="1" height="1" fill=currentColor />
<rect x="16" y="4" width="1" height="1" fill=currentColor />
<rect x="17" y="4" width="1" height="1" fill=currentColor />
<rect x="9" y="5" width="1" height="1" fill=currentColor />
<rect x="10" y="5" width="1" height="1" fill=currentColor />
<rect x="11" y="5" width="1" height="1" fill=currentColor />
<rect x="14" y="5" width="1" height="1" fill=currentColor />
<rect x="15" y="5" width="1" height="1" fill=currentColor />
<rect x="16" y="5" width="1" height="1" fill=currentColor />
<rect x="17" y="5" width="1" height="1" fill=currentColor />
<rect x="18" y="5" width="1" height="1" fill=currentColor />
<rect x="8" y="6" width="1" height="1" fill=currentColor />
<rect x="9" y="6" width="1" height="1" fill=currentColor />
<rect x="10" y="6" width="1" height="1" fill=currentColor />
<rect x="16" y="6" width="1" height="1" fill=currentColor />
<rect x="17" y="6" width="1" height="1" fill=currentColor />
<rect x="18" y="6" width="1" height="1" fill=currentColor />
<rect x="19" y="6" width="1" height="1" fill=currentColor />
<rect x="20" y="6" width="1" height="1" fill=currentColor />
<rect x="7" y="7" width="1" height="1" fill=currentColor />
<rect x="8" y="7" width="1" height="1" fill=currentColor />
<rect x="9" y="7" width="1" height="1" fill=currentColor />
<rect x="17" y="7" width="1" height="1" fill=currentColor />
<rect x="18" y="7" width="1" height="1" fill=currentColor />
<rect x="19" y="7" width="1" height="1" fill=currentColor />
<rect x="20" y="7" width="1" height="1" fill=currentColor />
<rect x="21" y="7" width="1" height="1" fill=currentColor />
<rect x="6" y="8" width="1" height="1" fill=currentColor />
<rect x="7" y="8" width="1" height="1" fill=currentColor />
<rect x="8" y="8" width="1" height="1" fill=currentColor />
<rect x="9" y="8" width="1" height="1" fill=currentColor />
<rect x="19" y="8" width="1" height="1" fill=currentColor />
<rect x="20" y="8" width="1" height="1" fill=currentColor />
<rect x="21" y="8" width="1" height="1" fill=currentColor />
<rect x="22" y="8" width="1" height="1" fill=currentColor />
<rect x="6" y="9" width="1" height="1" fill=currentColor />
<rect x="7" y="9" width="1" height="1" fill=currentColor />
<rect x="8" y="9" width="1" height="1" fill=currentColor />
<rect x="20" y="9" width="1" height="1" fill=currentColor />
<rect x="21" y="9" width="1" height="1" fill=currentColor />
<rect x="22" y="9" width="1" height="1" fill=currentColor />
<rect x="23" y="9" width="1" height="1" fill=currentColor />
<rect x="5" y="10" width="1" height="1" fill=currentColor />
<rect x="6" y="10" width="1" height="1" fill=currentColor />
<rect x="7" y="10" width="1" height="1" fill=currentColor />
<rect x="21" y="10" width="1" height="1" fill=currentColor />
<rect x="22" y="10" width="1" height="1" fill=currentColor />
<rect x="23" y="10" width="1" height="1" fill=currentColor />
<rect x="24" y="10" width="1" height="1" fill=currentColor />
<rect x="4" y="11" width="1" height="1" fill=currentColor />
<rect x="5" y="11" width="1" height="1" fill=currentColor />
<rect x="6" y="11" width="1" height="1" fill=currentColor />
<rect x="22" y="11" width="1" height="1" fill=currentColor />
<rect x="23" y="11" width="1" height="1" fill=currentColor />
<rect x="24" y="11" width="1" height="1" fill=currentColor />
<rect x="25" y="11" width="1" height="1" fill=currentColor />
<rect x="4" y="12" width="1" height="1" fill=currentColor />
<rect x="5" y="12" width="1" height="1" fill=currentColor />
<rect x="6" y="12" width="1" height="1" fill=currentColor />
<rect x="23" y="12" width="1" height="1" fill=currentColor />
<rect x="24" y="12" width="1" height="1" fill=currentColor />
<rect x="25" y="12" width="1" height="1" fill=currentColor />
<rect x="26" y="12" width="1" height="1" fill=currentColor />
<rect x="3" y="13" width="1" height="1" fill=currentColor />
<rect x="4" y="13" width="1" height="1" fill=currentColor />
<rect x="5" y="13" width="1" height="1" fill=currentColor />
<rect x="13" y="13" width="1" height="1" fill=currentColor />
<rect x="14" y="13" width="1" height="1" fill=currentColor />
<rect x="15" y="13" width="1" height="1" fill=currentColor />
<rect x="16" y="13" width="1" height="1" fill=currentColor />
<rect x="17" y="13" width="1" height="1" fill=currentColor />
<rect x="23" y="13" width="1" height="1" fill=currentColor />
<rect x="24" y="13" width="1" height="1" fill=currentColor />
<rect x="25" y="13" width="1" height="1" fill=currentColor />
<rect x="26" y="13" width="1" height="1" fill=currentColor />
<rect x="3" y="14" width="1" height="1" fill=currentColor />
<rect x="4" y="14" width="1" height="1" fill=currentColor />
<rect x="5" y="14" width="1" height="1" fill=currentColor />
<rect x="11" y="14" width="1" height="1" fill=currentColor />
<rect x="12" y="14" width="1" height="1" fill=currentColor />
<rect x="13" y="14" width="1" height="1" fill=currentColor />
<rect x="14" y="14" width="1" height="1" fill=currentColor />
<rect x="15" y="14" width="1" height="1" fill=currentColor />
<rect x="16" y="14" width="1" height="1" fill=currentColor />
<rect x="17" y="14" width="1" height="1" fill=currentColor />
<rect x="18" y="14" width="1" height="1" fill=currentColor />
<rect x="21" y="14" width="1" height="1" fill=currentColor />
<rect x="22" y="14" width="1" height="1" fill=currentColor />
<rect x="23" y="14" width="1" height="1" fill=currentColor />
<rect x="24" y="14" width="1" height="1" fill=currentColor />
<rect x="25" y="14" width="1" height="1" fill=currentColor />
<rect x="26" y="14" width="1" height="1" fill=currentColor />
<rect x="3" y="15" width="1" height="1" fill=currentColor />
<rect x="4" y="15" width="1" height="1" fill=currentColor />
<rect x="11" y="15" width="1" height="1" fill=currentColor />
<rect x="12" y="15" width="1" height="1" fill=currentColor />
<rect x="13" y="15" width="1" height="1" fill=currentColor />
<rect x="14" y="15" width="1" height="1" fill=currentColor />
<rect x="16" y="15" width="1" height="1" fill=currentColor />
<rect x="17" y="15" width="1" height="1" fill=currentColor />
<rect x="18" y="15" width="1" height="1" fill=currentColor />
<rect x="21" y="15" width="1" height="1" fill=currentColor />
<rect x="22" y="15" width="1" height="1" fill=currentColor />
<rect x="23" y="15" width="1" height="1" fill=currentColor />
<rect x="24" y="15" width="1" height="1" fill=currentColor />
<rect x="3" y="16" width="1" height="1" fill=currentColor />
<rect x="4" y="16" width="1" height="1" fill=currentColor />
<rect x="5" y="16" width="1" height="1" fill=currentColor />
<rect x="6" y="16" width="1" height="1" fill=currentColor />
<rect x="7" y="16" width="1" height="1" fill=currentColor />
<rect x="10" y="16" width="1" height="1" fill=currentColor />
<rect x="11" y="16" width="1" height="1" fill=currentColor />
<rect x="12" y="16" width="1" height="1" fill=currentColor />
<rect x="17" y="16" width="1" height="1" fill=currentColor />
<rect x="18" y="16" width="1" height="1" fill=currentColor />
<rect x="19" y="16" width="1" height="1" fill=currentColor />
<rect x="21" y="16" width="1" height="1" fill=currentColor />
<rect x="22" y="16" width="1" height="1" fill=currentColor />
<rect x="23" y="16" width="1" height="1" fill=currentColor />
<rect x="3" y="17" width="1" height="1" fill=currentColor />
<rect x="4" y="17" width="1" height="1" fill=currentColor />
<rect x="5" y="17" width="1" height="1" fill=currentColor />
<rect x="6" y="17" width="1" height="1" fill=currentColor />
<rect x="7" y="17" width="1" height="1" fill=currentColor />
<rect x="10" y="17" width="1" height="1" fill=currentColor />
<rect x="11" y="17" width="1" height="1" fill=currentColor />
<rect x="12" y="17" width="1" height="1" fill=currentColor />
<rect x="17" y="17" width="1" height="1" fill=currentColor />
<rect x="18" y="17" width="1" height="1" fill=currentColor />
<rect x="19" y="17" width="1" height="1" fill=currentColor />
<rect x="21" y="17" width="1" height="1" fill=currentColor />
<rect x="22" y="17" width="1" height="1" fill=currentColor />
<rect x="23" y="17" width="1" height="1" fill=currentColor />
<rect x="6" y="18" width="1" height="1" fill=currentColor />
<rect x="7" y="18" width="1" height="1" fill=currentColor />
<rect x="8" y="18" width="1" height="1" fill=currentColor />
<rect x="10" y="18" width="1" height="1" fill=currentColor />
<rect x="11" y="18" width="1" height="1" fill=currentColor />
<rect x="12" y="18" width="1" height="1" fill=currentColor />
<rect x="18" y="18" width="1" height="1" fill=currentColor />
<rect x="19" y="18" width="1" height="1" fill=currentColor />
<rect x="22" y="18" width="1" height="1" fill=currentColor />
<rect x="23" y="18" width="1" height="1" fill=currentColor />
<rect x="6" y="19" width="1" height="1" fill=currentColor />
<rect x="7" y="19" width="1" height="1" fill=currentColor />
<rect x="8" y="19" width="1" height="1" fill=currentColor />
<rect x="10" y="19" width="1" height="1" fill=currentColor />
<rect x="11" y="19" width="1" height="1" fill=currentColor />
<rect x="12" y="19" width="1" height="1" fill=currentColor />
<rect x="18" y="19" width="1" height="1" fill=currentColor />
<rect x="19" y="19" width="1" height="1" fill=currentColor />
<rect x="22" y="19" width="1" height="1" fill=currentColor />
<rect x="23" y="19" width="1" height="1" fill=currentColor />
<rect x="24" y="19" width="1" height="1" fill=currentColor />
<rect x="7" y="20" width="1" height="1" fill=currentColor />
<rect x="8" y="20" width="1" height="1" fill=currentColor />
<rect x="11" y="20" width="1" height="1" fill=currentColor />
<rect x="12" y="20" width="1" height="1" fill=currentColor />
<rect x="18" y="20" width="1" height="1" fill=currentColor />
<rect x="19" y="20" width="1" height="1" fill=currentColor />
<rect x="20" y="20" width="1" height="1" fill=currentColor />
<rect x="22" y="20" width="1" height="1" fill=currentColor />
<rect x="23" y="20" width="1" height="1" fill=currentColor />
<rect x="24" y="20" width="1" height="1" fill=currentColor />
<rect x="7" y="21" width="1" height="1" fill=currentColor />
<rect x="8" y="21" width="1" height="1" fill=currentColor />
<rect x="11" y="21" width="1" height="1" fill=currentColor />
<rect x="12" y="21" width="1" height="1" fill=currentColor />
<rect x="18" y="21" width="1" height="1" fill=currentColor />
<rect x="19" y="21" width="1" height="1" fill=currentColor />
<rect x="20" y="21" width="1" height="1" fill=currentColor />
<rect x="23" y="21" width="1" height="1" fill=currentColor />
<rect x="24" y="21" width="1" height="1" fill=currentColor />
<rect x="7" y="22" width="1" height="1" fill=currentColor />
<rect x="8" y="22" width="1" height="1" fill=currentColor />
<rect x="11" y="22" width="1" height="1" fill=currentColor />
<rect x="12" y="22" width="1" height="1" fill=currentColor />
<rect x="19" y="22" width="1" height="1" fill=currentColor />
<rect x="20" y="22" width="1" height="1" fill=currentColor />
<rect x="23" y="22" width="1" height="1" fill=currentColor />
<rect x="24" y="22" width="1" height="1" fill=currentColor />
<rect x="7" y="23" width="1" height="1" fill=currentColor />
<rect x="8" y="23" width="1" height="1" fill=currentColor />
<rect x="11" y="23" width="1" height="1" fill=currentColor />
<rect x="12" y="23" width="1" height="1" fill=currentColor />
<rect x="19" y="23" width="1" height="1" fill=currentColor />
<rect x="20" y="23" width="1" height="1" fill=currentColor />
<rect x="21" y="23" width="1" height="1" fill=currentColor />
<rect x="22" y="23" width="1" height="1" fill=currentColor />
<rect x="23" y="23" width="1" height="1" fill=currentColor />
<rect x="24" y="23" width="1" height="1" fill=currentColor />
<rect x="7" y="24" width="1" height="1" fill=currentColor />
<rect x="8" y="24" width="1" height="1" fill=currentColor />
<rect x="11" y="24" width="1" height="1" fill=currentColor />
<rect x="12" y="24" width="1" height="1" fill=currentColor />
<rect x="13" y="24" width="1" height="1" fill=currentColor />
<rect x="14" y="24" width="1" height="1" fill=currentColor />
<rect x="15" y="24" width="1" height="1" fill=currentColor />
<rect x="16" y="24" width="1" height="1" fill=currentColor />
<rect x="17" y="24" width="1" height="1" fill=currentColor />
<rect x="18" y="24" width="1" height="1" fill=currentColor />
<rect x="19" y="24" width="1" height="1" fill=currentColor />
<rect x="20" y="24" width="1" height="1" fill=currentColor />
<rect x="21" y="24" width="1" height="1" fill=currentColor />
<rect x="22" y="24" width="1" height="1" fill=currentColor />
<rect x="23" y="24" width="1" height="1" fill=currentColor />
<rect x="24" y="24" width="1" height="1" fill=currentColor />
<rect x="7" y="25" width="1" height="1" fill=currentColor />
<rect x="8" y="25" width="1" height="1" fill=currentColor />
<rect x="9" y="25" width="1" height="1" fill=currentColor />
<rect x="10" y="25" width="1" height="1" fill=currentColor />
<rect x="11" y="25" width="1" height="1" fill=currentColor />
<rect x="12" y="25" width="1" height="1" fill=currentColor />
<rect x="13" y="25" width="1" height="1" fill=currentColor />
<rect x="14" y="25" width="1" height="1" fill=currentColor />
<rect x="15" y="25" width="1" height="1" fill=currentColor />
<rect x="16" y="25" width="1" height="1" fill=currentColor />
<rect x="17" y="25" width="1" height="1" fill=currentColor />
<rect x="18" y="25" width="1" height="1" fill=currentColor />
<rect x="19" y="25" width="1" height="1" fill=currentColor />
<rect x="20" y="25" width="1" height="1" fill=currentColor />
<rect x="7" y="26" width="1" height="1" fill=currentColor />
<rect x="8" y="26" width="1" height="1" fill=currentColor />
<rect x="9" y="26" width="1" height="1" fill=currentColor />
<rect x="10" y="26" width="1" height="1" fill=currentColor />
<rect x="11" y="26" width="1" height="1" fill=currentColor />
<rect x="12" y="26" width="1" height="1" fill=currentColor />
<rect x="13" y="26" width="1" height="1" fill=currentColor />
<rect x="14" y="26" width="1" height="1" fill=currentColor />
</svg>