<?xml version="1.0" encoding="UTF-8" ?>
<svg version="1.1" width="30" height="30" xmlns="http://www.w3.org/2000/svg" shape-rendering="crispEdges">
<rect x="14" y="3" width="1" height="1" fill=currentColor />
<rect x="15" y="3" width="1" height="1" fill=currentColor />
<rect x="16" y="3" width="1" height="1" fill=currentColor />
<rect x="17" y="3" width="1" height="1" fill=currentColor />
<rect x="18" y="3" width="1" height="1" fill=currentColor />
<rect x="19" y="3" width="1" height="1" fill=currentColor />
<rect x="20" y="3" width="1" height="1" fill=currentColor />
<rect x="21" y="3" width="1" height="1" fill=currentColor />
<rect x="22" y="3" width="1" height="1" fill=currentColor />
<rect x="23" y="3" width="1" height="1" fill=currentColor />
<rect x="12" y="4" width="1" height="1" fill=currentColor />
<rect x="13" y="4" width="1" height="1" fill=currentColor />
<rect x="14" y="4" width="1" height="1" fill=currentColor />
<rect x="15" y="4" width="1" height="1" fill=currentColor />
<rect x="16" y="4" width="1" height="1" fill=currentColor />
<rect x="17" y="4" width="1" height="1" fill=currentColor />
<rect x="18" y="4" width="1" height="1" fill=currentColor />
<rect x="19" y="4" width="1" height="1" fill=currentColor />
<rect x="20" y="4" width="1" height="1" fill=currentColor />
<rect x="21" y="4" width="1" height="1" fill=currentColor />
<rect x="22" y="4" width="1" height="1" fill=currentColor />
<rect x="23" y="4" width="1" height="1" fill=currentColor />
<rect x="12" y="5" width="1" height="1" fill=currentColor />
<rect x="13" y="5" width="1" height="1" fill=currentColor />
<rect x="14" y="5" width="1" height="1" fill=currentColor />
<rect x="15" y="5" width="1" height="1" fill=currentColor />
<rect x="22" y="5" width="1" height="1" fill=currentColor />
<rect x="23" y="5" width="1" height="1" fill=currentColor />
<rect x="24" y="5" width="1" height="1" fill=currentColor />
<rect x="11" y="6" width="1" height="1" fill=currentColor />
<rect x="12" y="6" width="1" height="1" fill=currentColor />
<rect x="13" y="6" width="1" height="1" fill=currentColor />
<rect x="22" y="6" width="1" height="1" fill=currentColor />
<rect x="23" y="6" width="1" height="1" fill=currentColor />
<rect x="24" y="6" width="1" height="1" fill=currentColor />
<rect x="11" y="7" width="1" height="1" fill=currentColor />
<rect x="12" y="7" width="1" height="1" fill=currentColor />
<rect x="13" y="7" width="1" height="1" fill=currentColor />
<rect x="23" y="7" width="1" height="1" fill=currentColor />
<rect x="24" y="7" width="1" height="1" fill=currentColor />
<rect x="23" y="8" width="1" height="1" fill=currentColor />
<rect x="24" y="8" width="1" height="1" fill=currentColor />
<rect x="22" y="9" width="1" height="1" fill=currentColor />
<rect x="23" y="9" width="1" height="1" fill=currentColor />
<rect x="24" y="9" width="1" height="1" fill=currentColor />
<rect x="22" y="10" width="1" height="1" fill=currentColor />
<rect x="23" y="10" width="1" height="1" fill=currentColor />
<rect x="24" y="10" width="1" height="1" fill=currentColor />
<rect x="9" y="11" width="1" height="1" fill=currentColor />
<rect x="10" y="11" width="1" height="1" fill=currentColor />
<rect x="11" y="11" width="1" height="1" fill=currentColor />
<rect x="12" y="11" width="1" height="1" fill=currentColor />
<rect x="13" y="11" width="1" height="1" fill=currentColor />
<rect x="14" y="11" width="1" height="1" fill=currentColor />
<rect x="15" y="11" width="1" height="1" fill=currentColor />
<rect x="21" y="11" width="1" height="1" fill=currentColor />
<rect x="22" y="11" width="1" height="1" fill=currentColor />
<rect x="23" y="11" width="1" height="1" fill=currentColor />
<rect x="8" y="12" width="1" height="1" fill=currentColor />
<rect x="9" y="12" width="1" height="1" fill=currentColor />
<rect x="10" y="12" width="1" height="1" fill=currentColor />
<rect x="11" y="12" width="1" height="1" fill=currentColor />
<rect x="12" y="12" width="1" height="1" fill=currentColor />
<rect x="13" y="12" width="1" height="1" fill=currentColor />
<rect x="14" y="12" width="1" height="1" fill=currentColor />
<rect x="15" y="12" width="1" height="1" fill=currentColor />
<rect x="21" y="12" width="1" height="1" fill=currentColor />
<rect x="22" y="12" width="1" height="1" fill=currentColor />
<rect x="23" y="12" width="1" height="1" fill=currentColor />
<rect x="7" y="13" width="1" height="1" fill=currentColor />
<rect x="8" y="13" width="1" height="1" fill=currentColor />
<rect x="9" y="13" width="1" height="1" fill=currentColor />
<rect x="10" y="13" width="1" height="1" fill=currentColor />
<rect x="20" y="13" width="1" height="1" fill=currentColor />
<rect x="21" y="13" width="1" height="1" fill=currentColor />
<rect x="22" y="13" width="1" height="1" fill=currentColor />
<rect x="7" y="14" width="1" height="1" fill=currentColor />
<rect x="8" y="14" width="1" height="1" fill=currentColor />
<rect x="9" y="14" width="1" height="1" fill=currentColor />
<rect x="19" y="14" width="1" height="1" fill=currentColor />
<rect x="20" y="14" width="1" height="1" fill=currentColor />
<rect x="21" y="14" width="1" height="1" fill=currentColor />
<rect x="22" y="14" width="1" height="1" fill=currentColor />
<rect x="6" y="15" width="1" height="1" fill=currentColor />
<rect x="7" y="15" width="1" height="1" fill=currentColor />
<rect x="8" y="15" width="1" height="1" fill=currentColor />
<rect x="11" y="15" width="1" height="1" fill=currentColor />
<rect x="12" y="15" width="1" height="1" fill=currentColor />
<rect x="13" y="15" width="1" height="1" fill=currentColor />
<rect x="18" y="15" width="1" height="1" fill=currentColor />
<rect x="19" y="15" width="1" height="1" fill=currentColor />
<rect x="20" y="15" width="1" height="1" fill=currentColor />
<rect x="21" y="15" width="1" height="1" fill=currentColor />
<rect x="6" y="16" width="1" height="1" fill=currentColor />
<rect x="7" y="16" width="1" height="1" fill=currentColor />
<rect x="8" y="16" width="1" height="1" fill=currentColor />
<rect x="11" y="16" width="1" height="1" fill=currentColor />
<rect x="12" y="16" width="1" height="1" fill=currentColor />
<rect x="13" y="16" width="1" height="1" fill=currentColor />
<rect x="14" y="16" width="1" height="1" fill=currentColor />
<rect x="15" y="16" width="1" height="1" fill=currentColor />
<rect x="16" y="16" width="1" height="1" fill=currentColor />
<rect x="17" y="16" width="1" height="1" fill=currentColor />
<rect x="18" y="16" width="1" height="1" fill=currentColor />
<rect x="19" y="16" width="1" height="1" fill=currentColor />
<rect x="20" y="16" width="1" height="1" fill=currentColor />
<rect x="5" y="17" width="1" height="1" fill=currentColor />
<rect x="6" y="17" width="1" height="1" fill=currentColor />
<rect x="7" y="17" width="1" height="1" fill=currentColor />
<rect x="12" y="17" width="1" height="1" fill=currentColor />
<rect x="13" y="17" width="1" height="1" fill=currentColor />
<rect x="14" y="17" width="1" height="1" fill=currentColor />
<rect x="15" y="17" width="1" height="1" fill=currentColor />
<rect x="16" y="17" width="1" height="1" fill=currentColor />
<rect x="17" y="17" width="1" height="1" fill=currentColor />
<rect x="18" y="17" width="1" height="1" fill=currentColor />
<rect x="19" y="17" width="1" height="1" fill=currentColor />
<rect x="5" y="18" width="1" height="1" fill=currentColor />
<rect x="6" y="18" width="1" height="1" fill=currentColor />
<rect x="7" y="18" width="1" height="1" fill=currentColor />
<rect x="4" y="19" width="1" height="1" fill=currentColor />
<rect x="5" y="19" width="1" height="1" fill=currentColor />
<rect x="6" y="19" width="1" height="1" fill=currentColor />
<rect x="4" y="20" width="1" height="1" fill=currentColor />
<rect x="5" y="20" width="1" height="1" fill=currentColor />
<rect x="6" y="20" width="1" height="1" fill=currentColor />
<rect x="14" y="20" width="1" height="1" fill=currentColor />
<rect x="15" y="20" width="1" height="1" fill=currentColor />
<rect x="4" y="21" width="1" height="1" fill=currentColor />
<rect x="5" y="21" width="1" height="1" fill=currentColor />
<rect x="6" y="21" width="1" height="1" fill=currentColor />
<rect x="14" y="21" width="1" height="1" fill=currentColor />
<rect x="15" y="21" width="1" height="1" fill=currentColor />
<rect x="4" y="22" width="1" height="1" fill=currentColor />
<rect x="5" y="22" width="1" height="1" fill=currentColor />
<rect x="6" y="22" width="1" height="1" fill=currentColor />
<rect x="7" y="22" width="1" height="1" fill=currentColor />
<rect x="12" y="22" width="1" height="1" fill=currentColor />
<rect x="13" y="22" width="1" height="1" fill=currentColor />
<rect x="14" y="22" width="1" height="1" fill=currentColor />
<rect x="15" y="22" width="1" height="1" fill=currentColor />
<rect x="5" y="23" width="1" height="1" fill=currentColor />
<rect x="6" y="23" width="1" height="1" fill=currentColor />
<rect x="7" y="23" width="1" height="1" fill=currentColor />
<rect x="8" y="23" width="1" height="1" fill=currentColor />
<rect x="12" y="23" width="1" height="1" fill=currentColor />
<rect x="13" y="23" width="1" height="1" fill=currentColor />
<rect x="14" y="23" width="1" height="1" fill=currentColor />
<rect x="6" y="24" width="1" height="1" fill=currentColor />
<rect x="7" y="24" width="1" height="1" fill=currentColor />
<rect x="8" y="24" width="1" height="1" fill=currentColor />
<rect x="9" y="24" width="1" height="1" fill=currentColor />
<rect x="10" y="24" width="1" height="1" fill=currentColor />
<rect x="11" y="24" width="1" height="1" fill=currentColor />
<rect x="12" y="24" width="1" height="1" fill=currentColor />
<rect x="13" y="24" width="1" height="1" fill=currentColor />
<rect x="14" y="24" width="1" height="1" fill=currentColor />
<rect x="7" y="25" width="1" height="1" fill=currentColor />
<rect x="8" y="25" width="1" height="1" fill=currentColor />
<rect x="9" y="25" width="1" height="1" fill=currentColor />
<rect x="10" y="25" width="1" height="1" fill=currentColor />
<rect x="11" y="25" width="1" height="1" fill=currentColor />
<rect x="12" y="25" width="1" height="1" fill=currentColor />
<rect x="13" y="25" width="1" height="1" fill=currentColor />
<rect x="8" y="26" width="1" height="1" fill=currentColor />
<rect x="9" y="26" width="1" height="1" fill=currentColor />
<rect x="10" y="26" width="1" height="1" fill=currentColor />
<rect x="11" y="26" width="1" height="1" fill=currentColor />
<rect x="12" y="26" width="1" height="1" fill=currentColor />
</svg>