<?xml version="1.0" encoding="UTF-8" ?>
<svg version="1.1" width="30" height="30" xmlns="http://www.w3.org/2000/svg" class="icon icon-tabler icon-tabler-toggle-left" shape-rendering="crispEdges">
<rect x="14" y="7" width="1" height="1" fill=currentColor />
<rect x="15" y="7" width="1" height="1" fill=currentColor />
<rect x="16" y="7" width="1" height="1" fill=currentColor />
<rect x="17" y="7" width="1" height="1" fill=currentColor />
<rect x="18" y="7" width="1" height="1" fill=currentColor />
<rect x="19" y="7" width="1" height="1" fill=currentColor />
<rect x="20" y="7" width="1" height="1" fill=currentColor />
<rect x="21" y="7" width="1" height="1" fill=currentColor />
<rect x="10" y="8" width="1" height="1" fill=currentColor />
<rect x="11" y="8" width="1" height="1" fill=currentColor />
<rect x="12" y="8" width="1" height="1" fill=currentColor />
<rect x="13" y="8" width="1" height="1" fill=currentColor />
<rect x="14" y="8" width="1" height="1" fill=currentColor />
<rect x="15" y="8" width="1" height="1" fill=currentColor />
<rect x="16" y="8" width="1" height="1" fill=currentColor />
<rect x="17" y="8" width="1" height="1" fill=currentColor />
<rect x="18" y="8" width="1" height="1" fill=currentColor />
<rect x="19" y="8" width="1" height="1" fill=currentColor />
<rect x="20" y="8" width="1" height="1" fill=currentColor />
<rect x="21" y="8" width="1" height="1" fill=currentColor />
<rect x="22" y="8" width="1" height="1" fill=currentColor />
<rect x="23" y="8" width="1" height="1" fill=currentColor />
<rect x="24" y="8" width="1" height="1" fill=currentColor />
<rect x="25" y="8" width="1" height="1" fill=currentColor />
<rect x="26" y="8" width="1" height="1" fill=currentColor />
<rect x="7" y="9" width="1" height="1" fill=currentColor />
<rect x="8" y="9" width="1" height="1" fill=currentColor />
<rect x="9" y="9" width="1" height="1" fill=currentColor />
<rect x="10" y="9" width="1" height="1" fill=currentColor />
<rect x="11" y="9" width="1" height="1" fill=currentColor />
<rect x="12" y="9" width="1" height="1" fill=currentColor />
<rect x="13" y="9" width="1" height="1" fill=currentColor />
<rect x="14" y="9" width="1" height="1" fill=currentColor />
<rect x="15" y="9" width="1" height="1" fill=currentColor />
<rect x="16" y="9" width="1" height="1" fill=currentColor />
<rect x="17" y="9" width="1" height="1" fill=currentColor />
<rect x="18" y="9" width="1" height="1" fill=currentColor />
<rect x="19" y="9" width="1" height="1" fill=currentColor />
<rect x="20" y="9" width="1" height="1" fill=currentColor />
<rect x="21" y="9" width="1" height="1" fill=currentColor />
<rect x="22" y="9" width="1" height="1" fill=currentColor />
<rect x="23" y="9" width="1" height="1" fill=currentColor />
<rect x="24" y="9" width="1" height="1" fill=currentColor />
<rect x="25" y="9" width="1" height="1" fill=currentColor />
<rect x="26" y="9" width="1" height="1" fill=currentColor />
<rect x="27" y="9" width="1" height="1" fill=currentColor />
<rect x="5" y="10" width="1" height="1" fill=currentColor />
<rect x="6" y="10" width="1" height="1" fill=currentColor />
<rect x="7" y="10" width="1" height="1" fill=currentColor />
<rect x="8" y="10" width="1" height="1" fill=currentColor />
<rect x="9" y="10" width="1" height="1" fill=currentColor />
<rect x="10" y="10" width="1" height="1" fill=currentColor />
<rect x="11" y="10" width="1" height="1" fill=currentColor />
<rect x="25" y="10" width="1" height="1" fill=currentColor />
<rect x="26" y="10" width="1" height="1" fill=currentColor />
<rect x="27" y="10" width="1" height="1" fill=currentColor />
<rect x="3" y="11" width="1" height="1" fill=currentColor />
<rect x="4" y="11" width="1" height="1" fill=currentColor />
<rect x="5" y="11" width="1" height="1" fill=currentColor />
<rect x="6" y="11" width="1" height="1" fill=currentColor />
<rect x="7" y="11" width="1" height="1" fill=currentColor />
<rect x="8" y="11" width="1" height="1" fill=currentColor />
<rect x="26" y="11" width="1" height="1" fill=currentColor />
<rect x="27" y="11" width="1" height="1" fill=currentColor />
<rect x="2" y="12" width="1" height="1" fill=currentColor />
<rect x="3" y="12" width="1" height="1" fill=currentColor />
<rect x="4" y="12" width="1" height="1" fill=currentColor />
<rect x="5" y="12" width="1" height="1" fill=currentColor />
<rect x="6" y="12" width="1" height="1" fill=currentColor />
<rect x="26" y="12" width="1" height="1" fill=currentColor />
<rect x="27" y="12" width="1" height="1" fill=currentColor />
<rect x="1" y="13" width="1" height="1" fill=currentColor />
<rect x="2" y="13" width="1" height="1" fill=currentColor />
<rect x="3" y="13" width="1" height="1" fill=currentColor />
<rect x="4" y="13" width="1" height="1" fill=currentColor />
<rect x="7" y="13" width="1" height="1" fill=currentColor />
<rect x="8" y="13" width="1" height="1" fill=currentColor />
<rect x="9" y="13" width="1" height="1" fill=currentColor />
<rect x="10" y="13" width="1" height="1" fill=currentColor />
<rect x="11" y="13" width="1" height="1" fill=currentColor />
<rect x="26" y="13" width="1" height="1" fill=currentColor />
<rect x="27" y="13" width="1" height="1" fill=currentColor />
<rect x="1" y="14" width="1" height="1" fill=currentColor />
<rect x="2" y="14" width="1" height="1" fill=currentColor />
<rect x="3" y="14" width="1" height="1" fill=currentColor />
<rect x="5" y="14" width="1" height="1" fill=currentColor />
<rect x="6" y="14" width="1" height="1" fill=currentColor />
<rect x="7" y="14" width="1" height="1" fill=currentColor />
<rect x="8" y="14" width="1" height="1" fill=currentColor />
<rect x="9" y="14" width="1" height="1" fill=currentColor />
<rect x="10" y="14" width="1" height="1" fill=currentColor />
<rect x="11" y="14" width="1" height="1" fill=currentColor />
<rect x="12" y="14" width="1" height="1" fill=currentColor />
<rect x="26" y="14" width="1" height="1" fill=currentColor />
<rect x="27" y="14" width="1" height="1" fill=currentColor />
<rect x="1" y="15" width="1" height="1" fill=currentColor />
<rect x="2" y="15" width="1" height="1" fill=currentColor />
<rect x="5" y="15" width="1" height="1" fill=currentColor />
<rect x="6" y="15" width="1" height="1" fill=currentColor />
<rect x="7" y="15" width="1" height="1" fill=currentColor />
<rect x="10" y="15" width="1" height="1" fill=currentColor />
<rect x="11" y="15" width="1" height="1" fill=currentColor />
<rect x="12" y="15" width="1" height="1" fill=currentColor />
<rect x="26" y="15" width="1" height="1" fill=currentColor />
<rect x="27" y="15" width="1" height="1" fill=currentColor />
<rect x="1" y="16" width="1" height="1" fill=currentColor />
<rect x="2" y="16" width="1" height="1" fill=currentColor />
<rect x="5" y="16" width="1" height="1" fill=currentColor />
<rect x="6" y="16" width="1" height="1" fill=currentColor />
<rect x="11" y="16" width="1" height="1" fill=currentColor />
<rect x="12" y="16" width="1" height="1" fill=currentColor />
<rect x="25" y="16" width="1" height="1" fill=currentColor />
<rect x="26" y="16" width="1" height="1" fill=currentColor />
<rect x="27" y="16" width="1" height="1" fill=currentColor />
<rect x="1" y="17" width="1" height="1" fill=currentColor />
<rect x="2" y="17" width="1" height="1" fill=currentColor />
<rect x="5" y="17" width="1" height="1" fill=currentColor />
<rect x="6" y="17" width="1" height="1" fill=currentColor />
<rect x="7" y="17" width="1" height="1" fill=currentColor />
<rect x="10" y="17" width="1" height="1" fill=currentColor />
<rect x="11" y="17" width="1" height="1" fill=currentColor />
<rect x="12" y="17" width="1" height="1" fill=currentColor />
<rect x="24" y="17" width="1" height="1" fill=currentColor />
<rect x="25" y="17" width="1" height="1" fill=currentColor />
<rect x="26" y="17" width="1" height="1" fill=currentColor />
<rect x="27" y="17" width="1" height="1" fill=currentColor />
<rect x="1" y="18" width="1" height="1" fill=currentColor />
<rect x="2" y="18" width="1" height="1" fill=currentColor />
<rect x="5" y="18" width="1" height="1" fill=currentColor />
<rect x="6" y="18" width="1" height="1" fill=currentColor />
<rect x="7" y="18" width="1" height="1" fill=currentColor />
<rect x="8" y="18" width="1" height="1" fill=currentColor />
<rect x="9" y="18" width="1" height="1" fill=currentColor />
<rect x="10" y="18" width="1" height="1" fill=currentColor />
<rect x="11" y="18" width="1" height="1" fill=currentColor />
<rect x="12" y="18" width="1" height="1" fill=currentColor />
<rect x="22" y="18" width="1" height="1" fill=currentColor />
<rect x="23" y="18" width="1" height="1" fill=currentColor />
<rect x="24" y="18" width="1" height="1" fill=currentColor />
<rect x="25" y="18" width="1" height="1" fill=currentColor />
<rect x="26" y="18" width="1" height="1" fill=currentColor />
<rect x="1" y="19" width="1" height="1" fill=currentColor />
<rect x="2" y="19" width="1" height="1" fill=currentColor />
<rect x="3" y="19" width="1" height="1" fill=currentColor />
<rect x="6" y="19" width="1" height="1" fill=currentColor />
<rect x="7" y="19" width="1" height="1" fill=currentColor />
<rect x="8" y="19" width="1" height="1" fill=currentColor />
<rect x="9" y="19" width="1" height="1" fill=currentColor />
<rect x="10" y="19" width="1" height="1" fill=currentColor />
<rect x="11" y="19" width="1" height="1" fill=currentColor />
<rect x="20" y="19" width="1" height="1" fill=currentColor />
<rect x="21" y="19" width="1" height="1" fill=currentColor />
<rect x="22" y="19" width="1" height="1" fill=currentColor />
<rect x="23" y="19" width="1" height="1" fill=currentColor />
<rect x="24" y="19" width="1" height="1" fill=currentColor />
<rect x="25" y="19" width="1" height="1" fill=currentColor />
<rect x="1" y="20" width="1" height="1" fill=currentColor />
<rect x="2" y="20" width="1" height="1" fill=currentColor />
<rect x="3" y="20" width="1" height="1" fill=currentColor />
<rect x="4" y="20" width="1" height="1" fill=currentColor />
<rect x="16" y="20" width="1" height="1" fill=currentColor />
<rect x="17" y="20" width="1" height="1" fill=currentColor />
<rect x="18" y="20" width="1" height="1" fill=currentColor />
<rect x="19" y="20" width="1" height="1" fill=currentColor />
<rect x="20" y="20" width="1" height="1" fill=currentColor />
<rect x="21" y="20" width="1" height="1" fill=currentColor />
<rect x="22" y="20" width="1" height="1" fill=currentColor />
<rect x="23" y="20" width="1" height="1" fill=currentColor />
<rect x="2" y="21" width="1" height="1" fill=currentColor />
<rect x="3" y="21" width="1" height="1" fill=currentColor />
<rect x="4" y="21" width="1" height="1" fill=currentColor />
<rect x="5" y="21" width="1" height="1" fill=currentColor />
<rect x="10" y="21" width="1" height="1" fill=currentColor />
<rect x="11" y="21" width="1" height="1" fill=currentColor />
<rect x="12" y="21" width="1" height="1" fill=currentColor />
<rect x="13" y="21" width="1" height="1" fill=currentColor />
<rect x="14" y="21" width="1" height="1" fill=currentColor />
<rect x="15" y="21" width="1" height="1" fill=currentColor />
<rect x="16" y="21" width="1" height="1" fill=currentColor />
<rect x="17" y="21" width="1" height="1" fill=currentColor />
<rect x="18" y="21" width="1" height="1" fill=currentColor />
<rect x="19" y="21" width="1" height="1" fill=currentColor />
<rect x="20" y="21" width="1" height="1" fill=currentColor />
<rect x="21" y="21" width="1" height="1" fill=currentColor />
<rect x="3" y="22" width="1" height="1" fill=currentColor />
<rect x="4" y="22" width="1" height="1" fill=currentColor />
<rect x="5" y="22" width="1" height="1" fill=currentColor />
<rect x="6" y="22" width="1" height="1" fill=currentColor />
<rect x="7" y="22" width="1" height="1" fill=currentColor />
<rect x="8" y="22" width="1" height="1" fill=currentColor />
<rect x="9" y="22" width="1" height="1" fill=currentColor />
<rect x="10" y="22" width="1" height="1" fill=currentColor />
<rect x="11" y="22" width="1" height="1" fill=currentColor />
<rect x="12" y="22" width="1" height="1" fill=currentColor />
<rect x="13" y="22" width="1" height="1" fill=currentColor />
<rect x="14" y="22" width="1" height="1" fill=currentColor />
<rect x="15" y="22" width="1" height="1" fill=currentColor />
<rect x="16" y="22" width="1" height="1" fill=currentColor />
<rect x="17" y="22" width="1" height="1" fill=currentColor />
<rect x="4" y="23" width="1" height="1" fill=currentColor />
<rect x="5" y="23" width="1" height="1" fill=currentColor />
<rect x="6" y="23" width="1" height="1" fill=currentColor />
<rect x="7" y="23" width="1" height="1" fill=currentColor />
<rect x="8" y="23" width="1" height="1" fill=currentColor />
<rect x="9" y="23" width="1" height="1" fill=currentColor />
<rect x="10" y="23" width="1" height="1" fill=currentColor />
<rect x="11" y="23" width="1" height="1" fill=currentColor />
</svg>