<?xml version="1.0" encoding="UTF-8" ?>
<svg version="1.1" width="30" height="30" xmlns="http://www.w3.org/2000/svg" shape-rendering="crispEdges">
<rect x="12" y="3" width="1" height="1" fill=currentColor />
<rect x="13" y="3" width="1" height="1" fill=currentColor />
<rect x="14" y="3" width="1" height="1" fill=currentColor />
<rect x="15" y="3" width="1" height="1" fill=currentColor />
<rect x="10" y="4" width="1" height="1" fill=currentColor />
<rect x="11" y="4" width="1" height="1" fill=currentColor />
<rect x="12" y="4" width="1" height="1" fill=currentColor />
<rect x="13" y="4" width="1" height="1" fill=currentColor />
<rect x="14" y="4" width="1" height="1" fill=currentColor />
<rect x="15" y="4" width="1" height="1" fill=currentColor />
<rect x="16" y="4" width="1" height="1" fill=currentColor />
<rect x="17" y="4" width="1" height="1" fill=currentColor />
<rect x="18" y="4" width="1" height="1" fill=currentColor />
<rect x="9" y="5" width="1" height="1" fill=currentColor />
<rect x="10" y="5" width="1" height="1" fill=currentColor />
<rect x="11" y="5" width="1" height="1" fill=currentColor />
<rect x="12" y="5" width="1" height="1" fill=currentColor />
<rect x="13" y="5" width="1" height="1" fill=currentColor />
<rect x="14" y="5" width="1" height="1" fill=currentColor />
<rect x="15" y="5" width="1" height="1" fill=currentColor />
<rect x="16" y="5" width="1" height="1" fill=currentColor />
<rect x="17" y="5" width="1" height="1" fill=currentColor />
<rect x="18" y="5" width="1" height="1" fill=currentColor />
<rect x="19" y="5" width="1" height="1" fill=currentColor />
<rect x="8" y="6" width="1" height="1" fill=currentColor />
<rect x="9" y="6" width="1" height="1" fill=currentColor />
<rect x="10" y="6" width="1" height="1" fill=currentColor />
<rect x="11" y="6" width="1" height="1" fill=currentColor />
<rect x="17" y="6" width="1" height="1" fill=currentColor />
<rect x="18" y="6" width="1" height="1" fill=currentColor />
<rect x="19" y="6" width="1" height="1" fill=currentColor />
<rect x="20" y="6" width="1" height="1" fill=currentColor />
<rect x="7" y="7" width="1" height="1" fill=currentColor />
<rect x="8" y="7" width="1" height="1" fill=currentColor />
<rect x="9" y="7" width="1" height="1" fill=currentColor />
<rect x="10" y="7" width="1" height="1" fill=currentColor />
<rect x="18" y="7" width="1" height="1" fill=currentColor />
<rect x="19" y="7" width="1" height="1" fill=currentColor />
<rect x="20" y="7" width="1" height="1" fill=currentColor />
<rect x="7" y="8" width="1" height="1" fill=currentColor />
<rect x="8" y="8" width="1" height="1" fill=currentColor />
<rect x="9" y="8" width="1" height="1" fill=currentColor />
<rect x="19" y="8" width="1" height="1" fill=currentColor />
<rect x="20" y="8" width="1" height="1" fill=currentColor />
<rect x="21" y="8" width="1" height="1" fill=currentColor />
<rect x="7" y="9" width="1" height="1" fill=currentColor />
<rect x="8" y="9" width="1" height="1" fill=currentColor />
<rect x="19" y="9" width="1" height="1" fill=currentColor />
<rect x="20" y="9" width="1" height="1" fill=currentColor />
<rect x="21" y="9" width="1" height="1" fill=currentColor />
<rect x="7" y="10" width="1" height="1" fill=currentColor />
<rect x="8" y="10" width="1" height="1" fill=currentColor />
<rect x="20" y="10" width="1" height="1" fill=currentColor />
<rect x="21" y="10" width="1" height="1" fill=currentColor />
<rect x="7" y="11" width="1" height="1" fill=currentColor />
<rect x="8" y="11" width="1" height="1" fill=currentColor />
<rect x="19" y="11" width="1" height="1" fill=currentColor />
<rect x="20" y="11" width="1" height="1" fill=currentColor />
<rect x="21" y="11" width="1" height="1" fill=currentColor />
<rect x="7" y="12" width="1" height="1" fill=currentColor />
<rect x="8" y="12" width="1" height="1" fill=currentColor />
<rect x="9" y="12" width="1" height="1" fill=currentColor />
<rect x="19" y="12" width="1" height="1" fill=currentColor />
<rect x="20" y="12" width="1" height="1" fill=currentColor />
<rect x="21" y="12" width="1" height="1" fill=currentColor />
<rect x="7" y="13" width="1" height="1" fill=currentColor />
<rect x="8" y="13" width="1" height="1" fill=currentColor />
<rect x="9" y="13" width="1" height="1" fill=currentColor />
<rect x="10" y="13" width="1" height="1" fill=currentColor />
<rect x="18" y="13" width="1" height="1" fill=currentColor />
<rect x="19" y="13" width="1" height="1" fill=currentColor />
<rect x="20" y="13" width="1" height="1" fill=currentColor />
<rect x="8" y="14" width="1" height="1" fill=currentColor />
<rect x="9" y="14" width="1" height="1" fill=currentColor />
<rect x="10" y="14" width="1" height="1" fill=currentColor />
<rect x="11" y="14" width="1" height="1" fill=currentColor />
<rect x="17" y="14" width="1" height="1" fill=currentColor />
<rect x="18" y="14" width="1" height="1" fill=currentColor />
<rect x="19" y="14" width="1" height="1" fill=currentColor />
<rect x="20" y="14" width="1" height="1" fill=currentColor />
<rect x="9" y="15" width="1" height="1" fill=currentColor />
<rect x="10" y="15" width="1" height="1" fill=currentColor />
<rect x="11" y="15" width="1" height="1" fill=currentColor />
<rect x="12" y="15" width="1" height="1" fill=currentColor />
<rect x="13" y="15" width="1" height="1" fill=currentColor />
<rect x="14" y="15" width="1" height="1" fill=currentColor />
<rect x="15" y="15" width="1" height="1" fill=currentColor />
<rect x="16" y="15" width="1" height="1" fill=currentColor />
<rect x="17" y="15" width="1" height="1" fill=currentColor />
<rect x="18" y="15" width="1" height="1" fill=currentColor />
<rect x="19" y="15" width="1" height="1" fill=currentColor />
<rect x="10" y="16" width="1" height="1" fill=currentColor />
<rect x="11" y="16" width="1" height="1" fill=currentColor />
<rect x="12" y="16" width="1" height="1" fill=currentColor />
<rect x="13" y="16" width="1" height="1" fill=currentColor />
<rect x="14" y="16" width="1" height="1" fill=currentColor />
<rect x="15" y="16" width="1" height="1" fill=currentColor />
<rect x="16" y="16" width="1" height="1" fill=currentColor />
<rect x="17" y="16" width="1" height="1" fill=currentColor />
<rect x="18" y="16" width="1" height="1" fill=currentColor />
<rect x="10" y="20" width="1" height="1" fill=currentColor />
<rect x="11" y="20" width="1" height="1" fill=currentColor />
<rect x="12" y="20" width="1" height="1" fill=currentColor />
<rect x="13" y="20" width="1" height="1" fill=currentColor />
<rect x="14" y="20" width="1" height="1" fill=currentColor />
<rect x="15" y="20" width="1" height="1" fill=currentColor />
<rect x="16" y="20" width="1" height="1" fill=currentColor />
<rect x="17" y="20" width="1" height="1" fill=currentColor />
<rect x="18" y="20" width="1" height="1" fill=currentColor />
<rect x="19" y="20" width="1" height="1" fill=currentColor />
<rect x="20" y="20" width="1" height="1" fill=currentColor />
<rect x="21" y="20" width="1" height="1" fill=currentColor />
<rect x="7" y="21" width="1" height="1" fill=currentColor />
<rect x="8" y="21" width="1" height="1" fill=currentColor />
<rect x="9" y="21" width="1" height="1" fill=currentColor />
<rect x="10" y="21" width="1" height="1" fill=currentColor />
<rect x="11" y="21" width="1" height="1" fill=currentColor />
<rect x="12" y="21" width="1" height="1" fill=currentColor />
<rect x="13" y="21" width="1" height="1" fill=currentColor />
<rect x="14" y="21" width="1" height="1" fill=currentColor />
<rect x="15" y="21" width="1" height="1" fill=currentColor />
<rect x="16" y="21" width="1" height="1" fill=currentColor />
<rect x="17" y="21" width="1" height="1" fill=currentColor />
<rect x="18" y="21" width="1" height="1" fill=currentColor />
<rect x="19" y="21" width="1" height="1" fill=currentColor />
<rect x="20" y="21" width="1" height="1" fill=currentColor />
<rect x="21" y="21" width="1" height="1" fill=currentColor />
<rect x="22" y="21" width="1" height="1" fill=currentColor />
<rect x="6" y="22" width="1" height="1" fill=currentColor />
<rect x="7" y="22" width="1" height="1" fill=currentColor />
<rect x="8" y="22" width="1" height="1" fill=currentColor />
<rect x="9" y="22" width="1" height="1" fill=currentColor />
<rect x="10" y="22" width="1" height="1" fill=currentColor />
<rect x="11" y="22" width="1" height="1" fill=currentColor />
<rect x="20" y="22" width="1" height="1" fill=currentColor />
<rect x="21" y="22" width="1" height="1" fill=currentColor />
<rect x="22" y="22" width="1" height="1" fill=currentColor />
<rect x="23" y="22" width="1" height="1" fill=currentColor />
<rect x="5" y="23" width="1" height="1" fill=currentColor />
<rect x="6" y="23" width="1" height="1" fill=currentColor />
<rect x="7" y="23" width="1" height="1" fill=currentColor />
<rect x="8" y="23" width="1" height="1" fill=currentColor />
<rect x="21" y="23" width="1" height="1" fill=currentColor />
<rect x="22" y="23" width="1" height="1" fill=currentColor />
<rect x="23" y="23" width="1" height="1" fill=currentColor />
<rect x="5" y="24" width="1" height="1" fill=currentColor />
<rect x="6" y="24" width="1" height="1" fill=currentColor />
<rect x="7" y="24" width="1" height="1" fill=currentColor />
<rect x="22" y="24" width="1" height="1" fill=currentColor />
<rect x="23" y="24" width="1" height="1" fill=currentColor />
<rect x="24" y="24" width="1" height="1" fill=currentColor />
<rect x="5" y="25" width="1" height="1" fill=currentColor />
<rect x="6" y="25" width="1" height="1" fill=currentColor />
<rect x="22" y="25" width="1" height="1" fill=currentColor />
<rect x="23" y="25" width="1" height="1" fill=currentColor />
<rect x="24" y="25" width="1" height="1" fill=currentColor />
<rect x="5" y="26" width="1" height="1" fill=currentColor />
<rect x="6" y="26" width="1" height="1" fill=currentColor />
<rect x="23" y="26" width="1" height="1" fill=currentColor />
<rect x="24" y="26" width="1" height="1" fill=currentColor />
<rect x="5" y="27" width="1" height="1" fill=currentColor />
<rect x="6" y="27" width="1" height="1" fill=currentColor />
<rect x="23" y="27" width="1" height="1" fill=currentColor />
<rect x="24" y="27" width="1" height="1" fill=currentColor />
<rect x="5" y="28" width="1" height="1" fill=currentColor />
<rect x="6" y="28" width="1" height="1" fill=currentColor />
<rect x="23" y="28" width="1" height="1" fill=currentColor />
<rect x="24" y="28" width="1" height="1" fill=currentColor />
<rect x="5" y="29" width="1" height="1" fill=currentColor />
<rect x="6" y="29" width="1" height="1" fill=currentColor />
</svg>